<?xml version="1.0" encoding="utf-8"?>
<!-- Generator: Adobe Illustrator 25.2.3, SVG Export Plug-In . SVG Version: 6.00 Build 0)  -->
<svg version="1.1" id="Layer_1" xmlns="http://www.w3.org/2000/svg" xmlns:xlink="http://www.w3.org/1999/xlink" x="0px" y="0px"
	 viewBox="0 0 2 11" style="enable-background:new 0 0 2 11;" xml:space="preserve">
<style type="text/css">
	.st0{fill:#CCCCCC;}
	.st1{fill:#D3D3D3;}
	.st2{fill:#B1B2B6;}
	.st3{fill:#7C7C7C;}
	.st4{fill:#FFFFFF;}
	.st5{fill:#888888;}
</style>
<rect x="-2" y="-1" class="st0" width="6" height="12"/>
<g>
	<polygon class="st1" points="-39,-5 -39,7 -54,7 -54,-5 -53,-5 -53,6 -40,6 -40,-5 	"/>
</g>
<g>
	<polygon class="st2" points="-40,-5 -40,6 -53,6 -53,-5 -50,-5 -50,3 -43,3 -43,-5 	"/>
</g>
<path class="st3" d="M-43-4v7h-7v-7H-43 M-42-5h-9v9h9V-5L-42-5z"/>
<path d="M-44-3v5h-5v-5H-44 M-43-4h-7v7h7V-4L-43-4z"/>
<g>
	<polygon points="-39,7 -54,7 -53,6 -40,6 	"/>
</g>
<g>
	<polygon class="st1" points="-42,4 -51,4 -50,3 -43,3 	"/>
</g>
<g>
	<polygon points="-19,9 -19,-5 -4,-5 -4,9 -5,9 -5,-4 -18,-4 -18,9 	"/>
</g>
<path class="st1" d="M-18-4V9h13V-4H-18z"/>
<path class="st2" d="M-17-3V9h11V-3H-17z"/>
<path d="M0,3L0,3z"/>
<polygon class="st4" points="2,0 2,1 -1,1 -1,0 "/>
<path d="M0,1L0,1z"/>
<polygon class="st5" points="3,2 0,2 0,1 3,1 "/>
<polygon class="st4" points="2,2 2,3 -1,3 -1,2 "/>
<polygon class="st5" points="3,4 0,4 0,3 3,3 "/>
<polygon class="st4" points="2,4 2,5 -1,5 -1,4 "/>
<polygon class="st5" points="3,6 0,6 0,5 3,5 "/>
<polygon class="st4" points="2,6 2,7 -1,7 -1,6 "/>
<polygon class="st5" points="3,8 0,8 0,7 3,7 "/>
<polygon class="st4" points="2,8 2,9 -1,9 -1,8 "/>
<polygon class="st5" points="3,10 0,10 0,9 3,9 "/>
<path d="M0,5L0,5z"/>
<path d="M0,7L0,7z"/>
<path d="M0,9L0,9z"/>
</svg>
