<svg id="Layer_1" data-name="Layer 1" xmlns="http://www.w3.org/2000/svg" viewBox="0 0 2 11"><defs><style>.cls-1{fill:#ccc;}.cls-2{fill:#fff;}.cls-3{fill:#888;}</style></defs><rect class="cls-1" x="-2" y="-1" width="6" height="12"/><polygon class="cls-2" points="2 0 2 1 -1 1 -1 0 2 0"/><polygon class="cls-3" points="3 2 0 2 0 1 3 1 3 2"/><polygon class="cls-2" points="2 2 2 3 -1 3 -1 2 2 2"/><polygon class="cls-3" points="3 4 0 4 0 3 3 3 3 4"/><polygon class="cls-2" points="2 4 2 5 -1 5 -1 4 2 4"/><polygon class="cls-3" points="3 6 0 6 0 5 3 5 3 6"/><polygon class="cls-2" points="2 6 2 7 -1 7 -1 6 2 6"/><polygon class="cls-3" points="3 8 0 8 0 7 3 7 3 8"/><polygon class="cls-2" points="2 8 2 9 -1 9 -1 8 2 8"/><polygon class="cls-3" points="3 10 0 10 0 9 3 9 3 10"/></svg>